<svg height="96" width="96" xmlns="http://www.w3.org/2000/svg" xmlns:xlink="http://www.w3.org/1999/xlink"><linearGradient id="a"><stop offset="0" stop-color="#fefefe"/><stop offset="1" stop-color="#fefefe" stop-opacity="0"/></linearGradient><linearGradient id="b" gradientUnits="userSpaceOnUse" x1="48" x2="48" y1="90" y2="5.987717"><stop offset="0" stop-color="#bcb5ac"/><stop offset="1" stop-color="#e9e7e4"/></linearGradient><linearGradient id="c" gradientUnits="userSpaceOnUse" x1="36.357143" x2="36.357143" xlink:href="#a" y1="6" y2="63.893143"/><radialGradient id="d" cx="48" cy="90.171875" gradientTransform="matrix(1.1573129 0 0 .99590774 -7.551021 .197132)" gradientUnits="userSpaceOnUse" r="42" xlink:href="#a"/><linearGradient id="e" gradientTransform="matrix(1.0058652 0 0 .994169 100 0)" gradientUnits="userSpaceOnUse" x1="45.447727" x2="45.447727" y1="92.539597" y2="7.01654"><stop offset="0"/><stop offset="1" stop-opacity=".588235"/></linearGradient><linearGradient id="f" gradientTransform="matrix(1.0238095 0 0 1.0119048 -1.142857 -98.071429)" gradientUnits="userSpaceOnUse" x1="32.251034" x2="32.251034" xlink:href="#e" y1="6.131708" y2="90.238609"/><linearGradient id="g" gradientTransform="translate(0 -97)" gradientUnits="userSpaceOnUse" x1="32.251034" x2="32.251034" xlink:href="#e" y1="6.131708" y2="90.238609"/><linearGradient id="h" gradientTransform="matrix(4.9230616 0 0 3.0582321 10.263478 38.80516)" gradientUnits="userSpaceOnUse" x1="8" x2="8" y1="1" y2="14.00004"><stop offset="0" stop-color="#ff9201"/><stop offset="1" stop-color="#ff9201"/></linearGradient><g><g fill="url(#f)"><path d="m12-95.03125c-5.5110903 0-10.03125 4.52016-10.03125 10.03125v71c0 5.5110902 4.5201598 10.03125 10.03125 10.03125h72c5.51109 0 10.03125-4.5201597 10.03125-10.03125v-71c0-5.51109-4.52016-10.03125-10.03125-10.03125z" opacity=".08" transform="scale(1 -1)"/><path d="m12-94.03125c-4.971633 0-9.03125 4.059617-9.03125 9.03125v71c0 4.9716329 4.0596171 9.03125 9.03125 9.03125h72c4.971633 0 9.03125-4.059617 9.03125-9.03125v-71c0-4.971633-4.059617-9.03125-9.03125-9.03125z" opacity=".1" transform="scale(1 -1)"/><path d="m12-93c-4.4091333 0-8 3.590867-8 8v71c0 4.4091333 3.5908667 8 8 8h72c4.409133 0 8-3.5908667 8-8v-71c0-4.409133-3.590867-8-8-8z" opacity=".2" transform="scale(1 -1)"/><rect height="85" opacity=".3" rx="7" transform="scale(1 -1)" width="86" x="5" y="-92"/></g><rect fill="url(#g)" height="84" opacity=".45" rx="6" transform="scale(1 -1)" width="84" x="6" y="-91"/></g><g><path d="m12 6c-3.324 0-6 2.676-6 6v72c0 3.324 2.676 6 6 6h72c3.324 0 6-2.676 6-6v-72c0-3.324-2.676-6-6-6z" fill="url(#b)"/><path d="m12 6c-3.324 0-6 2.676-6 6v2 68 2c0 .334721.04135.6507.09375.96875.0487.295596.09704.596915.1875.875.00988.03038.020892.0636.03125.09375.098865.287771.2348802.547452.375.8125.1445918.273507.3156161.535615.5.78125s.3737765.473472.59375.6875c.439947.428056.94291.814526 1.5 1.09375.278545.139612.5734731.246947.875.34375-.2562018-.100222-.4867109-.236272-.71875-.375-.00741-.0044-.023866.0045-.03125 0-.031933-.0193-.062293-.04251-.09375-.0625-.120395-.0767-.2310226-.163513-.34375-.25-.1061728-.0808-.2132809-.161112-.3125-.25-.1779299-.161433-.3474596-.345388-.5-.53125-.1075789-.130255-.2183939-.265285-.3125-.40625-.025089-.03838-.038446-.08587-.0625-.125-.064763-.103032-.1302275-.204517-.1875-.3125-.1010083-.194706-.2056748-.415701-.28125-.625-.00796-.02181-.023589-.04055-.03125-.0625-.0318251-.09195-.0358045-.186831-.0625-.28125-.0303323-.106618-.0703894-.203031-.09375-.3125-.0728786-.341512-.125-.698205-.125-1.0625v-2-68-2c0-2.781848 2.2181517-5 5-5h2 68 2c2.781848 0 5 2.218152 5 5v2 68 2c0 .364295-.05212.720988-.125 1.0625-.04415.206893-.08838.397658-.15625.59375-.0077.02195-.0233.04069-.03125.0625-.06274.173739-.138383.367449-.21875.53125-.04158.0828-.07904.169954-.125.25-.0546.09721-.126774.18835-.1875.28125-.09411.140965-.204921.275995-.3125.40625-.143174.17445-.303141.346998-.46875.5-.01117.0102-.01998.02115-.03125.03125-.138386.125556-.285091.234436-.4375.34375-.102571.07315-.204318.153364-.3125.21875-.0074.0045-.02384-.0044-.03125 0-.232039.138728-.462548.274778-.71875.375.301527-.0968.596455-.204138.875-.34375.55709-.279224 1.060053-.665694 1.5-1.09375.219973-.214028.409366-.441865.59375-.6875s.355408-.507743.5-.78125c.14012-.265048.276135-.524729.375-.8125.01041-.03078.02133-.06274.03125-.09375.09046-.278085.1388-.579404.1875-.875.0524-.31805.09375-.634029.09375-.96875v-2-68-2c0-3.324-2.676-6-6-6z" fill="url(#c)" opacity=".5"/><path d="m12 90c-3.324 0-6-2.676-6-6v-2-68-2c0-.334721.04135-.6507.09375-.96875.0487-.295596.09704-.596915.1875-.875.0099-.03038.02089-.0636.03125-.09375.09886-.287771.23488-.547452.375-.8125.144592-.273507.315616-.535615.5-.78125s.373776-.473472.59375-.6875c.439947-.428056.94291-.814526 1.5-1.09375.278545-.139612.573473-.246947.875-.34375-.256202.100222-.486711.236272-.71875.375-.0074.0044-.02387-.0045-.03125 0-.03193.0193-.06229.04251-.09375.0625-.120395.0767-.231023.163513-.34375.25-.106173.0808-.213281.161112-.3125.25-.17793.161433-.34746.345388-.5.53125-.107579.130255-.218394.265285-.3125.40625-.02509.03838-.03845.08587-.0625.125-.06476.103032-.130228.204517-.1875.3125-.101008.194706-.205675.415701-.28125.625-.008.02181-.02359.04055-.03125.0625-.03182.09195-.0358.186831-.0625.28125-.03033.106618-.07039.203031-.09375.3125-.072879.341512-.125.698205-.125 1.0625v2 68 2c0 2.781848 2.218152 5 5 5h2 68 2c2.781848 0 5-2.218152 5-5v-2-68-2c0-.364295-.05212-.720988-.125-1.0625-.04415-.206893-.08838-.397658-.15625-.59375-.0077-.02195-.0233-.04069-.03125-.0625-.06274-.173739-.138383-.367449-.21875-.53125-.04158-.0828-.07904-.169954-.125-.25-.0546-.09721-.126774-.18835-.1875-.28125-.09411-.140965-.204921-.275995-.3125-.40625-.143174-.17445-.303141-.346998-.46875-.5-.01117-.0102-.01998-.02115-.03125-.03125-.138386-.125556-.285091-.234436-.4375-.34375-.102571-.07315-.204318-.153364-.3125-.21875-.0074-.0045-.02384.0044-.03125 0-.232039-.138728-.462548-.274778-.71875-.375.301527.0968.596455.204138.875.34375.55709.279224 1.060053.665694 1.5 1.09375.219973.214028.409366.441865.59375.6875s.355408.507743.5.78125c.14012.265048.276135.524729.375.8125.01041.03078.02133.06274.03125.09375.09046.278085.1388.579404.1875.875.0524.31805.09375.634029.09375.96875v2 68 2c0 3.324-2.676 6-6 6z" fill="url(#d)" opacity=".5"/></g><g stroke-width="3.880189" transform="matrix(1 0 0 1.6097737 0 -51.621152)"><path d="m19.407573 41.863392c-2.337765 0-4.221132 1.170293-4.221132 2.622189v13.105136c0 1.452171 1.883367 2.62219 4.221132 2.62219h21.096303c2.33777 0 4.22113-1.170019 4.22113-2.62219v-13.105136c0-1.451926-1.88336-2.622189-4.22113-2.622189zm9.884523 3.058232c4.84483 0 7.0769 1.56505 7.0769 3.60168 0 2.468971-3.89188 4.70509-7.69228 7.11987h8.09597v1.947238h-13.83626v-1.385747c1.07342-.63076 2.28952-1.278371 3.79804-2.251868 2.90111-1.891792 6.06718-3.70046 6.06718-5.286154 0-1.009124-.95665-1.636644-3.5096-1.636644-2.03076 0-3.6539.505007-5.3366.955698l-1.04807-1.929316c1.39254-.450447 3.65759-1.134879 6.38472-1.134879zm-9.884523 18.349392c-2.337765 0-4.221132 1.170019-4.221132 2.62219v13.10514c0 1.45244 1.883367 2.62219 4.221132 2.62219h21.096303c2.33777 0 4.22113-1.16975 4.22113-2.62219v-13.10514c0-1.452171-1.88336-2.62219-4.22113-2.62219zm34.461433 0c-2.33777 0-4.22113 1.170019-4.22113 2.62219v13.10514c0 1.45192 1.88336 2.62219 4.22113 2.62219h21.0963c2.33777 0 4.22113-1.1703 4.22113-2.62219v-13.10514c0-1.452171-1.88341-2.62219-4.22113-2.62219zm10.27886 3.058233c4.96097 0 7.22115 1.261337 7.22115 3.225517 0 .991173-.86661 1.727901-2.34614 2.448971 2.40792.810585 3.48075 1.982101 3.48075 3.243255 0 1.946714-2.748 3.930444-8.17326 3.930444-4.78679 0-8.33672-1.53426-8.33672-3.768969 0-1.315927 1.40175-2.576255 3.46151-3.350905-1.91473-.81086-2.32694-1.908062-2.32694-2.538577 0-1.748147 2.52253-3.189736 7.0193-3.189736zm-34.0479.161273h4.81732v7.860573h3.5096v1.98308h-3.5096v2.664001h-3.5673v-2.664001h-9.66348v-1.570922l8.41351-8.272823zm34.0479 1.821788c-1.97272 0-3.30771.70113-3.30766 1.385746 0 1.027352 2.41353 1.480246 4.09614 1.768056 1.91472-.66642 2.77882-1.083593 2.77882-1.678449 0-.991449-1.68157-1.475353-3.5673-1.475353zm-32.79793.597303-.40384.537576-4.99051 4.903876h5.3942v-4.903876-.537576zm32.42279 3.70933c-2.61099.450172-4.11538 1.475475-4.11538 2.448971 0 1.045304 1.77117 2.054762 4.81731 2.054762 2.75603 0 4.34613-.919546 4.34613-1.983077 0-1.441344-2.32103-2.088436-5.04811-2.520656z" fill="url(#h)"/><path d="m19.407573 41.863392c-2.337765 0-4.221132 1.170293-4.221132 2.622189v13.105136c0 1.452171 1.883367 2.62219 4.221132 2.62219h21.096303c2.33777 0 4.22113-1.170019 4.22113-2.62219v-13.105136c0-1.451926-1.88336-2.622189-4.22113-2.622189zm9.884523 3.058232c4.84483 0 7.0769 1.56505 7.0769 3.60168 0 2.468971-3.89188 4.70509-7.69228 7.11987h8.09597v1.947238h-13.83626v-1.385747c1.07342-.63076 2.28952-1.278371 3.79804-2.251868 2.90111-1.891792 6.06718-3.70046 6.06718-5.286154 0-1.009124-.95665-1.636644-3.5096-1.636644-2.03076 0-3.6539.505007-5.3366.955698l-1.04807-1.929316c1.39254-.450447 3.65759-1.134879 6.38472-1.134879z" fill="#007272"/><path d="m19.407573 63.271016c-2.337765 0-4.221132 1.170019-4.221132 2.62219v13.10514c0 1.45244 1.883367 2.62219 4.221132 2.62219h21.096303c2.33777 0 4.22113-1.16975 4.22113-2.62219v-13.10514c0-1.452171-1.88336-2.62219-4.22113-2.62219zm10.692393 3.219506h4.81732v7.860573h3.5096v1.98308h-3.5096v2.664001h-3.5673v-2.664001h-9.66348v-1.570922l8.41351-8.272823zm1.24997 2.419091-.40384.537576-4.99051 4.903876h5.3942v-4.903876-.537576z" fill="#070"/><path d="m19.407681 41.863392c-2.337765 0-4.221141 1.1703-4.221141 2.622195v13.105002c0 1.452171 1.883375 2.622196 4.221141 2.622196h21.096085c2.33777 0 4.22114-1.170025 4.22114-2.622196v-13.105002c0-1.451927-1.88337-2.622195-4.22114-2.622195zm0 1.529116h9.884585 11.2115c1.01537 0 1.75961.46259 1.75961 1.093079v13.105002c0 .630872-.74396 1.093079-1.75961 1.093079h-2.00961a2.461777 1.529269 0 0 0 .74039-1.093079v-1.947233a2.461777 1.529269 0 0 0 -2.46154-1.529116h-2.48076c.52501-.365473 1.13273-.699082 1.60577-1.081134 1.60944-1.299869 2.93268-2.7761 2.93268-4.509697 0-1.365331-.82835-2.748838-2.54807-3.703328-1.55954-.86559-3.74949-1.282137-6.25959-1.361869a2.461777 1.529269 0 0 0 -.73077-.0657c-3.39011 0-6.06281.837005-7.51921 1.308111a2.461777 1.529269 0 0 0 -1.20192 1.845691l1.04808 1.929314a2.461777 1.529269 0 0 0 3.30768.913886c1.76812-.47357 2.99153-.830263 4.36537-.830263.70833 0 .96138.05698 1.05528.07914.008-.09361.0343-.01616.0986.01642.0193.0098-.0663-.0088-.0986-.01642-.001.01603-.007-.0016-.007.02837 0 .160644-.37679.783158-1.39422 1.564953-1.01744.781797-2.50159 1.69318-3.99037 2.664008-1.42317.917721-2.57791 1.53197-3.71153 2.198104a2.461777 1.529269 0 0 0 -.76919 1.111v1.385762a2.461777 1.529269 0 0 0 .74043 1.093079h-1.807685c-1.015646 0-1.759611-.462207-1.759611-1.093079v-13.105001c0-.630441.744276-1.093079 1.759611-1.093079zm9.884585 1.529116c4.84483 0 7.0769 1.565155 7.0769 3.601785 0 2.468971-3.89188 4.705166-7.69228 7.119947h8.09612v1.947233h-13.83649v-1.385762c1.07342-.63076 2.28954-1.278365 3.79806-2.251861 2.90112-1.891792 6.06729-3.700509 6.06729-5.286202 0-1.009126-.95665-1.636633-3.5096-1.636633-2.03076 0-3.65382.505007-5.33652.955698l-1.04808-1.929314c1.39254-.450448 3.65747-1.134891 6.3846-1.134891zm-9.884585 18.349392c-2.337765 0-4.221141 1.170024-4.221141 2.622196v13.105004c0 1.45244 1.883375 2.62219 4.221141 2.62219h21.096085c2.33777 0 4.22114-1.16975 4.22114-2.62219v-13.105004c0-1.452171-1.88337-2.622196-4.22114-2.622196zm34.461435 0c-2.33777 0-4.22114 1.170024-4.22114 2.622196v13.105004c0 1.45192 1.88337 2.62219 4.22114 2.62219h21.09608c2.33777 0 4.22114-1.1703 4.22114-2.62219v-13.105004c0-1.452171-1.88342-2.622196-4.22114-2.622196zm-34.461435 1.529116h21.096085c1.01565 0 1.75961.462208 1.75961 1.09308v13.105004c0 .6313-.74365 1.09308-1.75961 1.09308h-3.86537a2.461777 1.529269 0 0 0 .74038-1.09308v-1.13489h1.04808a2.461777 1.529269 0 0 0 2.46153-1.529118v-1.983073a2.461777 1.529269 0 0 0 -2.46153-1.529116h-1.04808v-6.331496a2.461777 1.529269 0 0 0 -2.46153-1.529116h-4.81729a2.461777 1.529269 0 0 0 -2.07692.7108l-8.413433 8.272757a2.461777 1.529269 0 0 0 -.384614.818315v1.570929a2.461777 1.529269 0 0 0 2.461527 1.529118h7.2019v1.13489a2.461777 1.529269 0 0 0 .74039 1.09308h-10.221125c-1.015958 0-1.759611-.46178-1.759611-1.09308v-13.105004c0-.630872.743965-1.09308 1.759611-1.09308zm34.461435 0h10.27881 10.81727c1.01557 0 1.75961.462229 1.75961 1.09308v13.105004c0 .63044-.74427 1.09308-1.75961 1.09308h-5.83652c3.59035-.9252 5.83652-2.80753 5.83652-4.844195 0-1.23033-1.06627-2.349433-2.54806-3.321049.80233-.687637 1.41345-1.457075 1.41345-2.371325 0-1.346438-.93126-2.718918-2.72114-3.565946-1.78989-.847028-4.14521-1.188649-6.96152-1.188649-2.67182 0-4.98633.428943-6.71152 1.2663-1.72518.837356-2.76922 2.121492-2.76922 3.452457 0 .671212.55511 1.558655 1.48077 2.425082-1.47701.955628-2.61538 2.081735-2.61538 3.464404 0 1.620341 1.38795 3.071051 3.39422 3.966141.71685.31983 1.58531.51271 2.43268.71678h-5.49036c-1.01537 0-1.75961-.46259-1.75961-1.09308v-13.105004c0-.630872.74396-1.09308 1.75961-1.09308zm10.27881 1.529117c4.96097 0 7.22113 1.261299 7.22113 3.225478 0 .991174-.86662 1.727905-2.34614 2.448976 2.40791.810584 3.48075 1.982244 3.48075 3.243398 0 1.946715-2.74778 3.930305-8.17305 3.930305-4.78679 0-8.33651-1.53432-8.33651-3.769031 0-1.315927 1.40177-2.576265 3.46153-3.350914-1.91473-.81086-2.32692-1.908056-2.32692-2.538572 0-1.748146 2.52244-3.18964 7.01921-3.18964zm-34.04797.161274h4.81729v7.860612h3.50961v1.983073h-3.50961v2.664008h-3.5673v-2.664008h-9.66343v-1.570929zm34.04797 1.821798c-1.97272 0-3.30773.701145-3.30768 1.385761 0 1.027352 2.41354 1.480231 4.09614 1.768041 1.91473-.66642 2.77884-1.083588 2.77884-1.678444 0-.991448-1.68157-1.475358-3.5673-1.475358zm-32.79798.597311-.40384.53758-4.99037 4.903923h5.39421v-4.903923zm32.42298 3.709301c-2.61099.450171-4.11537 1.475478-4.11537 2.448975 0 1.045303 1.77115 2.054748 4.81729 2.054748 2.75603 0 4.34614-.91954 4.34614-1.98307 0-1.441345-2.32098-2.088434-5.04806-2.520653zm.19231 1.67247c.77306.156477 1.60677.317539 1.95192.465904.48631.209051.4423.171487.4423.382279 0 .05837.0195.08286-.20192.191139-.22144.10828-.74537.262817-1.68269.262817-1.08536 0-1.75974-.181005-2.07691-.328522-.31718-.147516-.27885-.210962-.27885-.197112 0 .004.76596-.441145 1.84615-.776505z" opacity=".08"/><path d="m19.407681 41.863392c-2.337765 0-4.221141 1.1703-4.221141 2.622195v13.105002c0 1.452171 1.883375 2.622196 4.221141 2.622196h21.096085c2.33777 0 4.22114-1.170025 4.22114-2.622196v-13.105002c0-1.451927-1.88337-2.622195-4.22114-2.622195zm0 .764557h21.096085c1.67657 0 2.99038.81643 2.99038 1.857638v13.105002c0 1.041521-1.31367 1.857637-2.99038 1.857637h-21.096085c-1.676706 0-2.990376-.816116-2.990376-1.857637v-13.105002c0-1.041169 1.313825-1.857638 2.990376-1.857638zm9.884585 1.529117c-3.05862 0-5.52743.757738-6.9519 1.218514a1.2308885.76463449 0 0 0 -.59615.925832l1.04807 1.929314a1.2308885.76463449 0 0 0 1.65384.45993c1.72541-.462132 3.14384-.895967 4.84614-.895967 1.11414.000001 1.69119.146363 1.93269.26879.24149.122427.34615.248805.34615.603285 0 .476745-.58728 1.214452-1.67307 2.048776-1.0858.834325-2.58801 1.753431-4.05768 2.711792-1.46314.943507-2.64786 1.574365-3.74999 2.221997a1.2308885.76463449 0 0 0 -.38462.555498v1.385762a1.2308885.76463449 0 0 0 1.23077.764558h13.83649a1.2308885.76463449 0 0 0 1.23077-.764558v-1.947233a1.2308885.76463449 0 0 0 -1.23077-.764558h-5.28844c1.19914-.764375 2.4622-1.520014 3.4423-2.311594 1.52873-1.234684 2.67307-2.559754 2.67307-4.043795 0-1.191823-.69294-2.335717-2.13461-3.135883-1.36709-.758772-3.36135-1.15246-5.80768-1.194622a1.2308885.76463449 0 0 0 -.0577-.006 1.2308885.76463449 0 0 0 -.30769-.02986zm0 .764558c4.84483 0 7.0769 1.565155 7.0769 3.601785 0 2.468971-3.89188 4.705166-7.69228 7.119947h8.09612v1.947233h-13.83649v-1.385762c1.07342-.63076 2.28954-1.278365 3.79806-2.251861 2.90112-1.891792 6.06729-3.700509 6.06729-5.286202 0-1.009126-.95665-1.636633-3.5096-1.636633-2.03076 0-3.65382.505007-5.33652.955698l-1.04808-1.929314c1.39254-.450448 3.65747-1.134891 6.3846-1.134891zm-9.884585 18.349392c-2.337765 0-4.221141 1.170024-4.221141 2.622196v13.105004c0 1.45244 1.883375 2.62219 4.221141 2.62219h21.096085c2.33777 0 4.22114-1.16975 4.22114-2.62219v-13.105004c0-1.452171-1.88337-2.622196-4.22114-2.622196zm34.461435 0c-2.33777 0-4.22114 1.170024-4.22114 2.622196v13.105004c0 1.45192 1.88337 2.62219 4.22114 2.62219h21.09608c2.33777 0 4.22114-1.1703 4.22114-2.62219v-13.105004c0-1.452171-1.88342-2.622196-4.22114-2.622196zm-34.461435.764559h21.096085c1.67671 0 2.99038.816116 2.99038 1.857637v13.105004c0 1.04187-1.31352 1.85764-2.99038 1.85764h-21.096085c-1.676861 0-2.990376-.81577-2.990376-1.85764v-13.105004c0-1.041521 1.31367-1.857637 2.990376-1.857637zm34.461435 0h21.09608c1.67665 0 2.99038.816126 2.99038 1.857637v13.105004c0 1.04117-1.31383 1.85764-2.99038 1.85764h-21.09608c-1.67657 0-2.99038-.81643-2.99038-1.85764v-13.105004c0-1.041521 1.31367-1.857637 2.99038-1.857637zm10.27881 1.529115c-2.4601 0-4.49295.390917-5.9519 1.099053-1.45896.708135-2.29807 1.752626-2.29807 2.855146 0 .661312.62948 1.622105 1.90384 2.484814-1.72845.888318-3.03846 2.040092-3.03846 3.404672 0 1.368851 1.13856 2.565941 2.88461 3.344941s4.0776 1.18865 6.68267 1.18865c5.90822 0 9.40382-2.30119 9.40382-4.694865 0-1.247808-1.17427-2.380661-2.99038-3.279237 1.04721-.678234 1.85577-1.446818 1.85577-2.413137 0-1.164264-.74324-2.252746-2.23076-2.956689-1.48753-.703941-3.57274-1.033348-6.22114-1.033348zm-34.05759.161275a1.2308885.76463449 0 0 0 -1.02884.358386l-8.41343 8.272756a1.2308885.76463449 0 0 0 -.19231.406172v1.570929a1.2308885.76463449 0 0 0 1.23076.764558h8.43267v1.89945a1.2308885.76463449 0 0 0 1.23076.76456h3.5673a1.2308885.76463449 0 0 0 1.23077-.76456v-1.89945h2.27884a1.2308885.76463449 0 0 0 1.23076-.764558v-1.983073a1.2308885.76463449 0 0 0 -1.23076-.764558h-2.27884v-7.096054a1.2308885.76463449 0 0 0 -1.23077-.764558h-4.81729a1.2308885.76463449 0 0 0 -.01 0zm34.05759.603284c4.96097 0 7.22113 1.261299 7.22113 3.225478 0 .991174-.86662 1.727905-2.34614 2.448976 2.40791.810584 3.48075 1.982244 3.48075 3.243398 0 1.946715-2.74778 3.930305-8.17305 3.930305-4.78679 0-8.33651-1.53432-8.33651-3.769031 0-1.315927 1.40177-2.576265 3.46153-3.350914-1.91473-.81086-2.32692-1.908056-2.32692-2.538572 0-1.748146 2.52244-3.18964 7.01921-3.18964zm-34.04797.161274h4.81729v7.860612h3.50961v1.983073h-3.50961v2.664008h-3.5673v-2.664008h-9.66343v-1.570929zm34.04797 1.821798c-1.97272 0-3.30773.701145-3.30768 1.385761 0 1.027352 2.41354 1.480231 4.09614 1.768041 1.91473-.66642 2.77884-1.083588 2.77884-1.678444 0-.991448-1.68157-1.475358-3.5673-1.475358zm-32.79798.597311-.40384.53758-4.99037 4.903923h5.39421v-4.903923zm32.79798.167247c.77339 0 1.46832.112224 1.85576.256844.38744.144618.48077.226748.48077.453956 0 .06746.029.07377-.27884.25087-.23521.135306-.82982.356043-1.43269.579392-.68442-.125556-1.41813-.257787-1.92307-.430064-.63423-.216385-.77885-.348046-.77885-.489795 0-.03358.0612-.174516.40385-.328521.34261-.154005.92143-.292682 1.67307-.292682zm-34.02874 2.610248v1.89945h-1.93269zm33.65374.931806c-2.61099.450171-4.11537 1.475478-4.11537 2.448975 0 1.045303 1.77115 2.054748 4.81729 2.054748 2.75603 0 4.34614-.91954 4.34614-1.98307 0-1.441345-2.32098-2.088434-5.04806-2.520653zm.0481.830262c1.11975.193797 2.17405.412691 2.79807.680935.70373.302511.97115.543723.97115 1.009456 0 .295066-.19133.552895-.67308.78845-.48173.235553-1.28463.430064-2.4423.430064-1.30421 0-2.24692-.218551-2.8173-.483822-.57037-.265275-.76922-.551971-.76922-.80637 0-.456536.93816-1.204897 2.93268-1.618713z" opacity=".1"/><path d="m19.407677 41.863392c-2.337765 0-4.221141 1.1703-4.221141 2.622195v.764558c0-1.451896 1.883376-2.622196 4.221141-2.622196h21.096089c2.33776 0 4.22114 1.170269 4.22114 2.622196v-.764558c0-1.451927-1.88338-2.622195-4.22114-2.622195zm3.855759 4.848671c-.11249.03555-.25267.07566-.35577.109009l1.04807 1.929314c1.68271-.45069 3.30576-.955697 5.33653-.955697 2.20123 0 3.21176.468489 3.4495 1.243901.0362-.124983.0601-.249437.0601-.371826 0-1.009126-.95665-1.636633-3.5096-1.636633-2.03076 0-3.65382.505007-5.33652.955698zm13.06005 2.262315c-.43376 2.292315-4.07912 4.402192-7.64661 6.668978h1.20192c3.37003-2.126169 6.49037-4.150875 6.49037-6.355389 0-.108018-.0331-.208386-.0457-.313589zm-13.38697 8.616211v.764558h13.83649v-.764558zm-3.528839 5.680427c-2.337765 0-4.221141 1.170024-4.221141 2.622196v.764558c0-1.452172 1.883376-2.622195 4.221141-2.622195h21.096089c2.33776 0 4.22114 1.170024 4.22114 2.622195v-.764558c0-1.452171-1.88338-2.622196-4.22114-2.622196zm34.461429 0c-2.33776 0-4.22114 1.170024-4.22114 2.622196v.764558c0-1.452172 1.88338-2.622195 4.22114-2.622195h21.09609c2.33772 0 4.22114 1.170024 4.22114 2.622195v-.764558c0-1.452171-1.88342-2.622196-4.22114-2.622196zm10.27882 5.041305c-1.97272 0-3.30774.701145-3.30769 1.385761 0 .14388.0558.273249.14183.395719.37783-.545907 1.5512-1.016922 3.16586-1.016922 1.59828 0 3.03688.352081 3.44229 1.06172.0766-.112282.125-.22709.125-.35092 0-.991448-1.68156-1.475358-3.56729-1.475358zm-32.79798.597311-.40384.53758-4.99037 4.903923h.77884l4.21153-4.139366.40384-.537579v-.226978zm25.84607 1.006469c-.0258.122002-.0673.241758-.0673.367346 0 .52788.30153 1.381739 1.51923 2.121948.25656-.123856.52428-.241349.80769-.347934-1.56782-.663948-2.108-1.506852-2.25961-2.14136zm14.11775.03883c-.20427.79531-1.0183 1.428575-2.29086 2.048776.29245.09845.56378.203486.81731.312095.96489-.585474 1.52884-1.209868 1.52884-1.996512 0-.12747-.0361-.242962-.0553-.364359zm-7.54084 2.664006c-2.611.450172-4.11538 1.475479-4.11538 2.448976 0 .128127.027.255527.0793.380785.33682-.8483 1.76738-1.674053 4.03605-2.065203 2.47799.392742 4.60038.969567 4.97114 2.151813.05-.128367.0769-.261172.0769-.395718 0-1.441345-2.32098-2.088433-5.04806-2.520653zm8.68987 3.023888c-.34763 1.810491-3.07541 3.534591-8.13218 3.534591-4.47732 0-7.87055-1.34269-8.29084-3.344945-.0207.113229-.0457.226117-.0457.340467 0 2.234708 3.54972 3.769028 8.33651 3.769028 5.42526 0 8.17305-1.98358 8.17305-3.930302 0-.124023-.0199-.246808-.0409-.368839zm-50.77628.691384v.764557h9.66343v-.764557zm13.23073 0v.764557h3.5096v-.764557zm-3.5673 2.664007v.76456h3.5673v-.76456z" opacity=".5"/><g fill="#fff"><path d="m29.292266 44.921624c-2.72713 0-4.99206.684443-6.3846 1.134891l.35577.655548c1.40699-.444517 3.50361-1.025881 6.02883-1.025881 4.58787 0 6.806 1.409868 7.03123 3.288196.0283-.149661.0457-.299653.0457-.450969 0-2.03663-2.23207-3.601785-7.0769-3.601785zm3.44951 4.116966c-.43215 1.494298-3.33 3.168599-6.0072 4.914376-1.50852.973496-2.72464 1.621101-3.79806 2.251861v.764558c1.07342-.63076 2.28954-1.278365 3.79806-2.251862 2.90112-1.891791 6.06729-3.700508 6.06729-5.286201 0-.139027-.0221-.268835-.0601-.392732zm-2.86297 6.604766c-.40428.255059-.79485.505904-1.20192.764558h8.09612v-.764558zm-14.692266 1.947233v.764558c0 1.452171 1.883375 2.622195 4.221141 2.622195h21.096085c2.33777 0 4.22114-1.170024 4.22114-2.622195v-.764558c0 1.452171-1.88337 2.622196-4.22114 2.622196h-21.096085c-2.337766 0-4.221141-1.170025-4.221141-2.622196zm48.961386 8.73866c-4.49677 0-7.01921 1.441494-7.01921 3.18964 0 .114236.0338.256815.0673.397212.33377-1.57624 2.77818-2.822295 6.9519-2.822295 4.63901 0 6.88979 1.111915 7.16584 2.861121.0332-.129349.0553-.261547.0553-.4002 0-1.964179-2.26016-3.225478-7.22113-3.225478zm-34.04797.161274-8.41344 8.272756v.764558l8.41344-8.272756h4.81729v-.764558zm30.88211 3.603278c-.0838.12106-.14183.244576-.14182.368839 0 1.027352 2.41354 1.480231 4.09614 1.768041 1.91473-.66642 2.77884-1.083588 2.77884-1.678444 0-.151129-.0521-.286011-.125-.413638-.29127.427099-1.1377.799832-2.65384 1.327524-1.44696-.247503-3.426-.620316-3.95432-1.372322zm8.85815 2.221997c-.25088.152225-.512.303669-.8173.452462 2.17112.730872 3.24735 1.75569 3.43989 2.87456.0253-.131931.0409-.263497.0409-.395719 0-1.107985-.82949-2.145658-2.66346-2.931303zm-11.19227.0896c-1.60805.776303-2.65384 1.868114-2.65384 3.00298 0 .144477.0166.285695.0457.424091.21732-1.189787 1.53508-2.303112 3.41585-3.010447-.31168-.131992-.57093-.272705-.80769-.416624zm-31.91337 1.94574-.77884.764558h5.39421v-.764558zm8.18267 0v.764558h3.50961v-.764558zm24.81964 1.097558c-.0508.128004-.0793.256137-.0793.383773 0 1.045307 1.77115 2.054747 4.81729 2.054747 2.75603 0 4.34614-.91954 4.34614-1.98307 0-.131651-.0396-.25-.0769-.368839-.34549.886322-1.86185 1.587359-4.26922 1.587359-2.67276 0-4.36353-.777338-4.73796-1.67397zm-44.550346 3.54952v.76456c0 1.45244 1.883375 2.62219 4.221141 2.62219h21.096085c2.33777 0 4.22114-1.16975 4.22114-2.62219v-.76456c0 1.45244-1.88337 2.62219-4.22114 2.62219h-21.096085c-2.337766 0-4.221141-1.16975-4.221141-2.62219zm34.461436 0v.76456c0 1.45192 1.88337 2.62219 4.22114 2.62219h21.09608c2.33777 0 4.22114-1.1703 4.22114-2.62219v-.76456c0 1.45189-1.88337 2.62219-4.22114 2.62219h-21.09608c-2.33777 0-4.22114-1.17027-4.22114-2.62219z" opacity=".6"/><path d="m29.292266 44.157066c-2.72713 0-4.99206.684444-6.3846 1.134891l.35577.655548c1.40699-.444517 3.50361-1.025881 6.02883-1.025881 4.58787 0 6.806 1.409868 7.03123 3.288196.0283-.149661.0457-.299653.0457-.450969 0-2.036629-2.23207-3.601785-7.0769-3.601785zm3.44951 4.116966c-.43215 1.494298-3.33 3.168599-6.0072 4.914375-1.50852.973497-2.72464 1.621102-3.79806 2.251863v.764557c1.07342-.63076 2.28954-1.278365 3.79806-2.251861 2.90112-1.891792 6.06729-3.700509 6.06729-5.286202 0-.139028-.0221-.268835-.0601-.392732zm-2.86297 6.604766c-.40428.255059-.79485.505904-1.20192.764558h8.09612v-.764558zm-14.692266 1.947233v.764558c0 1.452171 1.883375 2.622196 4.221141 2.622196h21.096085c2.33777 0 4.22114-1.170025 4.22114-2.622196v-.764558c0 1.45217-1.88337 2.622195-4.22114 2.622195h-21.096085c-2.337766 0-4.221141-1.170023-4.221141-2.622195zm48.961386 8.738659c-4.49677 0-7.01921 1.441494-7.01921 3.189641 0 .114237.0338.256815.0673.397212.33377-1.57624 2.77818-2.822294 6.9519-2.822294 4.63901 0 6.88979 1.111914 7.16584 2.861119.0332-.129348.0553-.261546.0553-.400198 0-1.964181-2.26016-3.22548-7.22113-3.22548zm-34.04797.161275-8.41344 8.272756v.764558l8.41344-8.272756h4.81729v-.764558zm30.88211 3.603278c-.0838.12106-.14183.244576-.14182.368839 0 1.027352 2.41354 1.480231 4.09614 1.768041 1.91473-.66642 2.77884-1.083588 2.77884-1.678444 0-.151129-.0521-.286012-.125-.413638-.29127.427099-1.1377.799832-2.65384 1.327523-1.44696-.247502-3.426-.620315-3.95432-1.372321zm8.85815 2.221996c-.25088.152226-.512.30367-.8173.452464 2.17112.73087 3.24735 1.755689 3.43989 2.874559.0253-.131931.0409-.263497.0409-.39572 0-1.107984-.82949-2.145656-2.66346-2.931303zm-11.19227.0896c-1.60805.776304-2.65384 1.868116-2.65384 3.002981 0 .144477.0166.285694.0457.424091.21732-1.189787 1.53508-2.303113 3.41585-3.010447-.31168-.131993-.57093-.272706-.80769-.416625zm-31.91337 1.945741-.77884.764558h5.39421v-.764561zm8.18267 0v.764558h3.50961v-.764561zm24.81964 1.097558c-.0508.128004-.0793.256137-.0793.383773 0 1.045303 1.77115 2.054755 4.81729 2.054755 2.75603 0 4.34614-.919547 4.34614-1.983077 0-.131652-.0396-.250001-.0769-.36884-.34549.886321-1.86185 1.587354-4.26922 1.587354-2.67276 0-4.36353-.777333-4.73796-1.673965zm-44.550346 3.549518v.76456c0 1.45244 1.883375 2.62219 4.221141 2.62219h21.096085c2.33777 0 4.22114-1.16975 4.22114-2.62219v-.76456c0 1.45245-1.88337 2.6222-4.22114 2.6222h-21.096085c-2.337766 0-4.221141-1.16975-4.221141-2.6222zm34.461436 0v.76456c0 1.45192 1.88337 2.62219 4.22114 2.62219h21.09608c2.33777 0 4.22114-1.1703 4.22114-2.62219v-.76456c0 1.4519-1.88337 2.6222-4.22114 2.6222h-21.09608c-2.33777 0-4.22114-1.17027-4.22114-2.6222z" opacity=".15"/></g></g></svg>